<?xml version="1.0" encoding="utf-8"?>
<svg xmlns="http://www.w3.org/2000/svg" xmlns:xlink="http://www.w3.org/1999/xlink" style="margin: auto; background: none; display: block; shape-rendering: crispedges;" width="114px" height="114px" viewBox="0 0 100 100" preserveAspectRatio="xMidYMid">
<g transform="rotate(0 50 50)">
  <rect x="44.5" y="8" rx="0.18" ry="0.18" width="11" height="18" fill="#ffffff">
    <animate attributeName="opacity" values="1;0" keyTimes="0;1" dur="1.4925373134328357s" begin="-1.3681592039800994s" repeatCount="indefinite"></animate>
  </rect>
</g><g transform="rotate(30 50 50)">
  <rect x="44.5" y="8" rx="0.18" ry="0.18" width="11" height="18" fill="#ffffff">
    <animate attributeName="opacity" values="1;0" keyTimes="0;1" dur="1.4925373134328357s" begin="-1.243781094527363s" repeatCount="indefinite"></animate>
  </rect>
</g><g transform="rotate(60 50 50)">
  <rect x="44.5" y="8" rx="0.18" ry="0.18" width="11" height="18" fill="#ffffff">
    <animate attributeName="opacity" values="1;0" keyTimes="0;1" dur="1.4925373134328357s" begin="-1.1194029850746268s" repeatCount="indefinite"></animate>
  </rect>
</g><g transform="rotate(90 50 50)">
  <rect x="44.5" y="8" rx="0.18" ry="0.18" width="11" height="18" fill="#ffffff">
    <animate attributeName="opacity" values="1;0" keyTimes="0;1" dur="1.4925373134328357s" begin="-0.9950248756218905s" repeatCount="indefinite"></animate>
  </rect>
</g><g transform="rotate(120 50 50)">
  <rect x="44.5" y="8" rx="0.18" ry="0.18" width="11" height="18" fill="#ffffff">
    <animate attributeName="opacity" values="1;0" keyTimes="0;1" dur="1.4925373134328357s" begin="-0.8706467661691542s" repeatCount="indefinite"></animate>
  </rect>
</g><g transform="rotate(150 50 50)">
  <rect x="44.5" y="8" rx="0.18" ry="0.18" width="11" height="18" fill="#ffffff">
    <animate attributeName="opacity" values="1;0" keyTimes="0;1" dur="1.4925373134328357s" begin="-0.7462686567164178s" repeatCount="indefinite"></animate>
  </rect>
</g><g transform="rotate(180 50 50)">
  <rect x="44.5" y="8" rx="0.18" ry="0.18" width="11" height="18" fill="#ffffff">
    <animate attributeName="opacity" values="1;0" keyTimes="0;1" dur="1.4925373134328357s" begin="-0.6218905472636815s" repeatCount="indefinite"></animate>
  </rect>
</g><g transform="rotate(210 50 50)">
  <rect x="44.5" y="8" rx="0.18" ry="0.18" width="11" height="18" fill="#ffffff">
    <animate attributeName="opacity" values="1;0" keyTimes="0;1" dur="1.4925373134328357s" begin="-0.49751243781094523s" repeatCount="indefinite"></animate>
  </rect>
</g><g transform="rotate(240 50 50)">
  <rect x="44.5" y="8" rx="0.18" ry="0.18" width="11" height="18" fill="#ffffff">
    <animate attributeName="opacity" values="1;0" keyTimes="0;1" dur="1.4925373134328357s" begin="-0.3731343283582089s" repeatCount="indefinite"></animate>
  </rect>
</g><g transform="rotate(270 50 50)">
  <rect x="44.5" y="8" rx="0.18" ry="0.18" width="11" height="18" fill="#ffffff">
    <animate attributeName="opacity" values="1;0" keyTimes="0;1" dur="1.4925373134328357s" begin="-0.24875621890547261s" repeatCount="indefinite"></animate>
  </rect>
</g><g transform="rotate(300 50 50)">
  <rect x="44.5" y="8" rx="0.18" ry="0.18" width="11" height="18" fill="#ffffff">
    <animate attributeName="opacity" values="1;0" keyTimes="0;1" dur="1.4925373134328357s" begin="-0.12437810945273631s" repeatCount="indefinite"></animate>
  </rect>
</g><g transform="rotate(330 50 50)">
  <rect x="44.5" y="8" rx="0.18" ry="0.18" width="11" height="18" fill="#ffffff">
    <animate attributeName="opacity" values="1;0" keyTimes="0;1" dur="1.4925373134328357s" begin="0s" repeatCount="indefinite"></animate>
  </rect>
</g>
<!-- [ldio] generated by https://loading.io/ --></svg>